PathFileType	4	(X/Y/Z)	D:\Share\Shared_Data\Ergonomics\Sit To Stand Pertubation\S1\Perturbed_NoHarness.trc
DataRate	CameraRate	NumFrames	NumMarkers	Units	OrigDataRate	OrigDataStartFrame	OrigNumFrames	
100	100	14	18	m	100	5218	231
Frame#	Time	L_ASIS			R_ASIS			R_Pelvis			V_Sacral			L_Pelvis			Clavical			R_Acromium			L_Acromium			Sternum			Torso			R_Thigh_Med			R_Thigh_Lat			R_Thigh			R_Shank_Med			R_Shank_Lat			R_Shank			R_Heel			R_Toe			
		X1	Y1	Z1	X2	Y2	Z2	X3	Y3	Z3	X4	Y4	Z4	X5	Y5	Z5	X6	Y6	Z6	X7	Y7	Z7	X8	Y8	Z8	X9	Y9	Z9	X10	Y10	Z10	X11	Y11	Z11	X12	Y12	Z12	X13	Y13	Z13	X14	Y14	Z14	X15	Y15	Z15	X16	Y16	Z16	X17	Y17	Z17	X18	Y18	Z18	

5218	52.17	0.031296682	0.63957373	-0.093461617	0.014208168	0.62903333	0.10805119	-0.070264854	0.6354892	0.13732524	-0.17317288	0.57850537	0.010139918	-0.064643311	0.63310065	-0.13460918	0.10708329	0.93819232	0.0044137654	0.068668518	1.0259163	0.14979887	0.016265619	0.98993427	-0.19060149	0.096341667	0.95640411	0.10522155	0.10840054	0.94292072	-0.05568359	0.29786472	0.41519492	0.04137566	0.29399915	0.43798822	0.16199791	0.16487967	0.55285846	0.11541588	0.32767426	0.096809853	0.10335832	0.303724	0.10012466	0.18118878	0.29558408	0.31281625	0.18567729	0.26290909	0.032767838	0.12778029	0.46793311	0.049772091	0.14136731
5219	52.18	0.0319165	0.63899219	-0.093376419	0.014730518	0.62859827	0.10817269	-0.069824471	0.63591724	0.13765739	-0.17302036	0.57875226	0.010150766	-0.064141548	0.63325165	-0.13449236	0.11309058	0.93566382	0.0048149009	0.07652739	1.0241981	0.14999628	0.023131453	0.98927106	-0.18995979	0.10265111	0.9541181	0.10552157	0.11458317	0.94062903	-0.055163033	0.29782272	0.41522522	0.041666054	0.29392377	0.43794559	0.16229092	0.16486653	0.55278998	0.11575871	0.32765771	0.096820099	0.10338717	0.30365063	0.10004851	0.18121814	0.29548254	0.31273758	0.18587424	0.26288422	0.032734459	0.1277798	0.46803915	0.049470413	0.14129295
5220	52.19	0.032582729	0.63836627	-0.093294907	0.015301908	0.62812177	0.10830778	-0.069329063	0.63629242	0.13794189	-0.1728495	0.57903473	0.010165237	-0.063591263	0.63341364	-0.13436168	0.11935387	0.93292786	0.0052299409	0.084716415	1.0222781	0.15017062	0.030330177	0.98848517	-0.18928488	0.10922223	0.95164581	0.10581768	0.12102509	0.93816614	-0.054608452	0.29776956	0.41525	0.041947556	0.29384402	0.43789938	0.16257378	0.16484975	0.55271613	0.11608597	0.32763947	0.096827515	0.10341865	0.30356693	0.099970085	0.18125328	0.29537555	0.31265662	0.18606551	0.26285187	0.032692398	0.12778212	0.46811551	0.049237434	0.14123729
5221	52.2	0.033309963	0.63769031	-0.093216133	0.015932122	0.62760022	0.10845451	-0.068764412	0.63661359	0.13817741	-0.17265041	0.57936475	0.010183479	-0.062976322	0.63358783	-0.13421584	0.12587114	0.92997742	0.0056558399	0.093224632	1.020145	0.15031845	0.037861935	0.98756512	-0.18858179	0.11604627	0.94898022	0.10610793	0.12772399	0.93552521	-0.054023026	0.29770523	0.41526993	0.042216537	0.29376065	0.43784973	0.16284268	0.16483034	0.55263965	0.11639569	0.32761661	0.096831627	0.10345255	0.30347086	0.099890427	0.18129405	0.29526389	0.31257428	0.18624878	0.26281018	0.032639595	0.12778767	0.46815454	0.049093243	0.14120621
5222	52.21	0.034115921	0.6369585	-0.093138535	0.016633808	0.62703076	0.10861185	-0.068113808	0.63688562	0.13836597	-0.17240997	0.57975665	0.010205362	-0.062277229	0.63377655	-0.13405368	0.13264029	0.92680823	0.0060884371	0.10203918	1.0177901	0.15043661	0.045724628	0.98650098	-0.18785828	0.12311353	0.94611646	0.10639005	0.13467648	0.93270135	-0.053410732	0.29763144	0.41528616	0.042470081	0.29367538	0.43779663	0.16309451	0.1648112	0.55256421	0.11668587	0.32758606	0.096832115	0.10348898	0.30336063	0.099810593	0.18134038	0.29514948	0.31249164	0.18642235	0.26275754	0.032574017	0.12779694	0.4681507	0.049053841	0.14120486
5223	52.22	0.035021313	0.63616565	-0.093059898	0.017422253	0.62641272	0.1087794	-0.067358246	0.63711884	0.13851247	-0.17211185	0.58022754	0.010230387	-0.061471306	0.63398242	-0.13387437	0.13965904	0.92341901	0.0065225515	0.11114567	1.0152076	0.15052243	0.053913834	0.98528455	-0.18712463	0.13041383	0.94305212	0.10666131	0.14187791	0.92969214	-0.052776196	0.297552	0.41530026	0.042706078	0.29359119	0.43774014	0.16332683	0.16479724	0.55249445	0.11695445	0.32754449	0.096828842	0.10352827	0.30323514	0.099731766	0.18139232	0.29503568	0.31240991	0.18658522	0.26269257	0.032493824	0.12781052	0.46810095	0.049129887	0.14123743
5224	52.23	0.036049335	0.63530713	-0.092977615	0.018314983	0.62574658	0.10895716	-0.066476738	0.63732812	0.13862341	-0.17173657	0.58079657	0.010257587	-0.060533073	0.63420874	-0.13367723	0.14692494	0.91981171	0.0069522057	0.12052817	1.0123951	0.15057379	0.062422821	0.98391034	-0.1863932	0.13793683	0.93978741	0.10691864	0.14932213	0.92649768	-0.052124485	0.29747302	0.41531439	0.042923294	0.29351242	0.43768036	0.1635381	0.16479572	0.55243628	0.11719934	0.32748859	0.096821846	0.10357098	0.30309406	0.099655174	0.18144995	0.29492734	0.31233047	0.18673705	0.26261426	0.032397469	0.12782905	0.46800546	0.049325897	0.14130658
5225	52.24	0.037225006	0.63437988	-0.092888817	0.019331182	0.62503528	0.10914528	-0.065446877	0.63753223	0.13870598	-0.17126183	0.58148401	0.010285455	-0.059434933	0.63445947	-0.13346164	0.15443503	0.9159917	0.0073709536	0.13016948	1.0093536	0.15058928	0.07124263	0.98237555	-0.18567749	0.14567258	0.93632568	0.10715858	0.15700117	0.92312122	-0.051460892	0.29740311	0.41533124	0.043121418	0.29344531	0.43761758	0.16372751	0.16481622	0.55239661	0.1174184	0.32741534	0.09681131	0.10361771	0.30293793	0.099582123	0.18151335	0.29483112	0.31225494	0.18687817	0.26252203	0.032283863	0.12785307	0.46786734	0.049639996	0.1414135
5226	52.25	0.038574192	0.63338245	-0.092790619	0.020490942	0.62428357	0.10934373	-0.064245621	0.63775244	0.13876683	-0.17066312	0.58231122	0.010311865	-0.058148037	0.63473914	-0.13322716	0.16218559	0.91196777	0.0077723103	0.14005121	1.0060881	0.15056825	0.08036219	0.98068103	-0.18499117	0.15361143	0.93267322	0.10737737	0.16490517	0.91956842	-0.050790703	0.29735327	0.41535373	0.04330098	0.29339774	0.43755206	0.1638951	0.16487082	0.552383	0.1176095	0.32732248	0.096797562	0.10366904	0.30276843	0.099513901	0.18158264	0.29475562	0.31218475	0.18700948	0.26241605	0.032152477	0.12788311	0.46769275	0.050064232	0.14155765
5227	52.26	0.040122494	0.6323158	-0.09268026	0.021814392	0.62349841	0.10955228	-0.06285014	0.63801044	0.1388112	-0.16991455	0.58329871	0.010334063	-0.056643421	0.63505255	-0.13297334	0.17017198	0.90775171	0.0081502075	0.15015359	1.0026072	0.15051085	0.089768349	0.97883105	-0.18434666	0.16174437	0.92883972	0.107571	0.17302214	0.9158479	-0.050119026	0.29733673	0.41538486	0.043463177	0.29337936	0.43748428	0.16404164	0.16497366	0.55240399	0.11777066	0.32720889	0.096781052	0.10372537	0.30258868	0.099451752	0.18165776	0.29471097	0.31212158	0.1871322	0.26229697	0.03200346	0.12791945	0.46749048	0.050585369	0.14173694
5228	52.27	0.04189397	0.63118414	-0.092555351	0.023320761	0.62268909	0.10977019	-0.061238914	0.63832782	0.13884233	-0.16898984	0.58446521	0.01034868	-0.054893326	0.63540497	-0.13270007	0.17838788	0.90335858	0.0084994345	0.16045552	0.99892377	0.15041789	0.09944593	0.97683368	-0.18375398	0.17006242	0.92483807	0.10773546	0.18133798	0.91197058	-0.049450657	0.29736844	0.41542752	0.043609756	0.29340176	0.43741479	0.16416837	0.16514084	0.55246783	0.11790002	0.32707516	0.096762276	0.10378671	0.3024028	0.099396729	0.1817384	0.29470886	0.31206693	0.18724782	0.26216638	0.03183765	0.12796225	0.46727106	0.051186131	0.14194775
5229	52.28	0.043909801	0.62999487	-0.09241391	0.025027386	0.62186621	0.10999622	-0.059392773	0.638724	0.1388611	-0.16786356	0.58582642	0.010351819	-0.052872543	0.63580127	-0.13240742	0.18682512	0.89880627	0.0088159819	0.17093428	0.99505438	0.15029082	0.10937755	0.97470044	-0.18321965	0.17855627	0.92068402	0.10786693	0.18983632	0.90794977	-0.048790016	0.29746457	0.41548425	0.04374271	0.29347803	0.43734409	0.16427693	0.16538986	0.55258246	0.11799606	0.32692392	0.096741737	0.10385262	0.30221628	0.099349632	0.18182414	0.29476227	0.312022	0.18735768	0.26202646	0.031656664	0.12801131	0.46704617	0.051846588	0.14218533
5230	52.29	0.046187126	0.62875903	-0.092254539	0.026948788	0.62104236	0.11022864	-0.057295956	0.63921497	0.1388662	-0.16651245	0.58739319	0.010339186	-0.05055986	0.63624634	-0.13209604	0.19547285	0.89411523	0.009097271	0.18156509	0.99101923	0.15013135	0.11954333	0.97244568	-0.18274614	0.18721562	0.91639624	0.10796198	0.1984987	0.90380054	-0.048141098	0.29764209	0.41555673	0.043864006	0.29362274	0.43727261	0.16436905	0.16573924	0.55275464	0.11805763	0.3267601	0.096719887	0.10392206	0.30203564	0.099310928	0.18191422	0.29488474	0.31198767	0.18746288	0.26188016	0.031462822	0.12806616	0.4668277	0.052545769	0.14244395
5231	52.3	0.048737892	0.62749139	-0.092076462	0.029095825	0.62023035	0.11046516	-0.054937134	0.63981274	0.13885442	-0.16491653	0.58917023	0.01030629	-0.047939377	0.63674414	-0.13176695	0.20431723	0.88930841	0.0093421907	0.192321	0.9868421	0.14994119	0.12992055	0.97008624	-0.18233165	0.19602814	0.91199591	0.10801785	0.20730444	0.89953986	-0.047507568	0.29791776	0.41564557	0.04397533	0.29385165	0.43720068	0.16444632	0.16620787	0.55298956	0.11808405	0.32659116	0.09669706	0.10399343	0.30186819	0.099280647	0.18200745	0.29509024	0.31196426	0.187564	0.26173093	0.031259104	0.12812602	0.46662692	0.053263069	0.14271744
